<svg width="24" height="24" viewBox="0 0 24 24" fill="none" xmlns="http://www.w3.org/2000/svg">
<path d="M12 4.94531C8.06719 4.94531 4.86563 8.14688 4.86563 12.0797C4.86563 16.0125 8.06719 19.2141 12 19.2141C15.9328 19.2141 19.1344 16.0125 19.1344 12.0797C19.1344 8.14219 15.9328 4.94531 12 4.94531ZM12 17.2969C9.12187 17.2969 6.77813 14.9531 6.77813 12.075C6.77813 9.19688 9.12187 6.85312 12 6.85312C14.8781 6.85312 17.2219 9.19688 17.2219 12.075C17.2219 14.9531 14.8781 17.2969 12 17.2969Z" fill="black"/>
<path d="M12 3.50625C12.5297 3.50625 12.9563 3.07969 12.9563 2.55V1.47187C12.9563 0.942187 12.5297 0.515625 12 0.515625C11.4703 0.515625 11.0438 0.942187 11.0438 1.47187V2.55C11.0438 3.07969 11.4703 3.50625 12 3.50625Z" fill="black"/>
<path d="M12 20.4938C11.4703 20.4938 11.0438 20.9203 11.0438 21.45V22.5234C11.0438 23.0531 11.4703 23.4797 12 23.4797C12.5297 23.4797 12.9563 23.0531 12.9563 22.5234V21.45C12.9563 20.925 12.5297 20.4938 12 20.4938Z" fill="black"/>
<path d="M22.5281 11.0438H21.45C20.9203 11.0438 20.4938 11.4703 20.4938 12C20.4938 12.5297 20.9203 12.9563 21.45 12.9563H22.5281C23.0578 12.9563 23.4844 12.5297 23.4844 12C23.4844 11.4703 23.0578 11.0438 22.5281 11.0438Z" fill="black"/>
<path d="M2.55 11.0438H1.47187C0.942187 11.0438 0.515625 11.4703 0.515625 12C0.515625 12.5297 0.942187 12.9563 1.47187 12.9563H2.54531C3.075 12.9563 3.50156 12.5297 3.50156 12C3.50625 11.4703 3.075 11.0438 2.55 11.0438Z" fill="black"/>
<path d="M18.7687 3.88125L18.0047 4.64062C17.6297 5.01562 17.6297 5.62031 18.0047 5.99531C18.3797 6.37031 18.9844 6.37031 19.3594 5.99531L20.1188 5.23594C20.4938 4.86094 20.4938 4.25625 20.1188 3.88125C19.7438 3.50625 19.1391 3.50625 18.7687 3.88125Z" fill="black"/>
<path d="M4.64062 18.0047L3.88125 18.7641C3.50625 19.1391 3.50625 19.7438 3.88125 20.1188C4.25625 20.4938 4.86094 20.4938 5.23594 20.1188L5.99531 19.3594C6.37031 18.9844 6.37031 18.3797 5.99531 18.0047C5.62031 17.6297 5.01562 17.6344 4.64062 18.0047Z" fill="black"/>
<path d="M19.3594 18.0047C18.9844 17.6297 18.3797 17.6297 18.0047 18.0047C17.6297 18.3797 17.6297 18.9844 18.0047 19.3594L18.7641 20.1188C19.1391 20.4938 19.7438 20.4938 20.1188 20.1188C20.4938 19.7438 20.4938 19.1391 20.1188 18.7641L19.3594 18.0047Z" fill="black"/>
<path d="M4.64062 5.99531C5.01562 6.37031 5.62031 6.37031 5.99531 5.99531C6.37031 5.62031 6.37031 5.01562 5.99531 4.64062L5.23594 3.88125C4.86094 3.50625 4.25625 3.50625 3.88125 3.88125C3.50625 4.25625 3.50625 4.86094 3.88125 5.23594L4.64062 5.99531Z" fill="black"/>
</svg>
