<svg class="{{ .class }}" aria-label="LinkedIn" role="img" viewBox="0 0 34.48 32"><path d="M29.632,0H2.362A2.336,2.336,0,0,0,0,2.306V29.691A2.337,2.337,0,0,0,2.362,32h27.27A2.342,2.342,0,0,0,32,29.691V2.306A2.34,2.34,0,0,0,29.632,0ZM9.491,27.268H4.744V12H9.491ZM7.119,9.909a2.752,2.752,0,1,1,2.75-2.753A2.753,2.753,0,0,1,7.119,9.909ZM27.268,27.268H22.525V19.842c0-1.772-.033-4.05-2.466-4.05-2.47,0-2.848,1.929-2.848,3.921v7.555H12.468V12h4.553v2.086h.063a4.986,4.986,0,0,1,4.491-2.467c4.806,0,5.694,3.163,5.694,7.275Z"/></svg>
