<svg class="{{ .class }}" aria-label="Twitter" viewBox="0 0 24.999 20.316"><path d="M25 2.405a10.253 10.253 0 0 1-2.947.808A5.144 5.144 0 0 0 24.308.376 10.27 10.27 0 0 1 21.05 1.62a5.134 5.134 0 0 0-8.74 4.68A14.56 14.56 0 0 1 1.74.94a5.134 5.134 0 0 0 1.587 6.846 5.108 5.108 0 0 1-2.323-.642v.064a5.132 5.132 0 0 0 4.114 5.03 5.142 5.142 0 0 1-2.316.088 5.134 5.134 0 0 0 4.79 3.562 10.29 10.29 0 0 1-6.37 2.2A10.44 10.44 0 0 1 0 18.012a14.586 14.586 0 0 0 22.454-12.29q0-.333-.015-.662A10.423 10.423 0 0 0 25 2.405z" /></svg>
