<svg xmlns="http://www.w3.org/2000/svg" width="24" height="24" viewBox="0 0 24 24" fill="currentColor" stroke-linecap="round" stroke-linejoin="round">
<g>
	<g>
		<g>
			<path d="M12,22C6.5,22,2,17.5,2,12c0-0.6,0.4-1,1-1s1,0.4,1,1c0,4.4,3.6,8,8,8s8-3.6,8-8s-3.6-8-8-8C9.3,4,6.8,5.3,5.4,7.6
				C5,8,4.4,8.1,4,7.8C3.5,7.5,3.4,6.9,3.7,6.4C5.5,3.7,8.7,2,12,2c5.5,0,10,4.5,10,10S17.5,22,12,22z"/>
		</g>
	</g>
	<g>
		<g>
			<path d="M12,13c-0.6,0-1-0.4-1-1V7c0-0.6,0.4-1,1-1s1,0.4,1,1v5C13,12.6,12.6,13,12,13z"/>
		</g>
	</g>
	<g>
		<g>
			<path d="M15,16c-0.3,0-0.5-0.1-0.7-0.3l-3-3c-0.4-0.4-0.4-1,0-1.4s1-0.4,1.4,0l3,3c0.4,0.4,0.4,1,0,1.4C15.5,15.9,15.3,16,15,16z
				"/>
		</g>
	</g>
	<g>
		<g>
			<path d="M8,8H4C3.4,8,3,7.6,3,7V3c0-0.6,0.4-1,1-1s1,0.4,1,1v3h3c0.6,0,1,0.4,1,1S8.6,8,8,8z"/>
		</g>
	</g>
</g>
</svg>
