<?xml version="1.0" encoding="UTF-8"?>
<!-- Created with Inkscape (https://www.inkscape.org/) -->
<svg version="1.1" viewBox="0 0 720 380" xmlns="http://www.w3.org/2000/svg" xmlns:cc="http://creativecommons.org/ns#" xmlns:dc="http://purl.org/dc/elements/1.1/" xmlns:rdf="http://www.w3.org/1999/02/22-rdf-syntax-ns#">
 <metadata>
  <rdf:RDF>
   <cc:Work rdf:about="">
    <dc:format>image/svg+xml</dc:format>
    <dc:type rdf:resource="http://purl.org/dc/dcmitype/StillImage"/>
    <dc:title/>
   </cc:Work>
  </rdf:RDF>
 </metadata>
 <g transform="translate(0 -672.36)">
  <g transform="translate(-12.857 661.32)">
   <rect x="12.857" y="11.038" width="720" height="380" fill="#f2f2f2"/>
   <path d="m406.45 171.65h-67.181c-2.322 0-4.1988 1.8769-4.1988 4.1988v50.386c0 2.3178 1.8769 4.1988 4.1988 4.1988h67.181c2.322 0 4.1988-1.8811 4.1988-4.1988v-50.386c0-2.3178-1.8769-4.1988-4.1988-4.1988zm-19.944 14.696c2.8972 0 5.2485 2.3513 5.2485 5.2485s-2.3513 5.2485-5.2485 5.2485-5.2485-2.3513-5.2485-5.2485 2.3513-5.2485 5.2485-5.2485zm-38.839 31.491 13.915-31.991 15.825 25.621 13.566-6.7391 7.0792 13.109h-50.386z" fill="#ccc"/>
   <text x="330.2663" y="265.41037" fill="#cccccc" font-family="sans-serif" font-size="21.695px" letter-spacing="0px" stroke-width=".54238" word-spacing="0px" style="line-height:1.25" xml:space="preserve"><tspan x="330.2663" y="265.41037" fill="#cccccc" font-family="Lato" stroke-width=".54238">Loading..</tspan></text>
  </g>
 </g>
</svg>
